<svg xmlns="http://www.w3.org/2000/svg" viewBox="0 0 120 120" fill="none">
  <!-- Lobster icon - simple stylized -->
  <ellipse cx="60" cy="65" rx="28" ry="35" stroke="#c0785a" stroke-width="1.5" fill="none"/>
  <path d="M32 55 Q20 40 15 30" stroke="#c0785a" stroke-width="1.5" fill="none" stroke-linecap="round"/>
  <path d="M88 55 Q100 40 105 30" stroke="#c0785a" stroke-width="1.5" fill="none" stroke-linecap="round"/>
  <!-- Claws -->
  <path d="M15 30 Q10 25 12 20 Q14 18 18 22 L15 30" stroke="#c0785a" stroke-width="1.2" fill="#c0785a" opacity="0.15"/>
  <path d="M105 30 Q110 25 108 20 Q106 18 102 22 L105 30" stroke="#c0785a" stroke-width="1.2" fill="#c0785a" opacity="0.15"/>
  <!-- Eyes -->
  <circle cx="48" cy="50" r="4" fill="#1a1a1a" opacity="0.7"/>
  <circle cx="72" cy="50" r="4" fill="#1a1a1a" opacity="0.7"/>
  <circle cx="49.5" cy="49" r="1.2" fill="white"/>
  <circle cx="73.5" cy="49" r="1.2" fill="white"/>
  <!-- Smile -->
  <path d="M52 62 Q60 68 68 62" stroke="#c0785a" stroke-width="1.2" fill="none" stroke-linecap="round"/>
  <!-- Shell segments -->
  <path d="M40 75 Q60 80 80 75" stroke="#e8d4c0" stroke-width="0.8" fill="none"/>
  <path d="M38 85 Q60 90 82 85" stroke="#e8d4c0" stroke-width="0.8" fill="none"/>
  <!-- Antenna -->
  <path d="M50 32 Q48 20 52 12" stroke="#c0785a" stroke-width="1" fill="none" stroke-linecap="round"/>
  <path d="M70 32 Q72 20 68 12" stroke="#c0785a" stroke-width="1" fill="none" stroke-linecap="round"/>
  <circle cx="52" cy="12" r="2" fill="#c0785a" opacity="0.5"/>
  <circle cx="68" cy="12" r="2" fill="#c0785a" opacity="0.5"/>
</svg>
